<?xml version="1.0" encoding="UTF-8" standalone="no"?>
<!DOCTYPE svg PUBLIC "-//W3C//DTD SVG 1.1//EN"
 "http://www.w3.org/Graphics/SVG/1.1/DTD/svg11.dtd">
<!-- Generated by graphviz version 2.43.0 (0)
 -->
<!-- Title: %3 Pages: 1 -->
<svg width="527pt" height="396pt"
 viewBox="0.00 0.00 527.00 395.50" xmlns="http://www.w3.org/2000/svg" xmlns:xlink="http://www.w3.org/1999/xlink">
<g id="graph0" class="graph" transform="scale(1 1) rotate(0) translate(4 391.5)">
<title>%3</title>
<polygon fill="white" stroke="transparent" points="-4,4 -4,-391.5 523,-391.5 523,4 -4,4"/>
<g id="clust1" class="cluster">
<title>cluster__legend</title>
<polygon fill="#ffffff" stroke="black" points="8.5,-137.5 8.5,-379.5 124.5,-379.5 124.5,-137.5 8.5,-137.5"/>
<text text-anchor="middle" x="66.5" y="-364.3" font-family="Helvetica,sans-Serif" font-size="14.00">Legend</text>
</g>
<!-- processed_data -->
<g id="node1" class="node">
<title>processed_data</title>
<path fill="#b4d8e4" stroke="black" d="M296,-90.5C296,-90.5 174,-90.5 174,-90.5 168,-90.5 162,-84.5 162,-78.5 162,-78.5 162,-38.5 162,-38.5 162,-32.5 168,-26.5 174,-26.5 174,-26.5 296,-26.5 296,-26.5 302,-26.5 308,-32.5 308,-38.5 308,-38.5 308,-78.5 308,-78.5 308,-84.5 302,-90.5 296,-90.5"/>
<text text-anchor="start" x="173" y="-69.3" font-family="Helvetica,sans-Serif" font-weight="bold" font-size="14.00">processed_data</text>
<text text-anchor="start" x="196.5" y="-41.3" font-family="Helvetica,sans-Serif" font-style="italic" font-size="14.00">DataFrame</text>
</g>
<!-- amount_per_country -->
<g id="node2" class="node">
<title>amount_per_country</title>
<path fill="#ffc857" stroke="black" d="M507,-90.5C507,-90.5 349,-90.5 349,-90.5 343,-90.5 337,-84.5 337,-78.5 337,-78.5 337,-38.5 337,-38.5 337,-32.5 343,-26.5 349,-26.5 349,-26.5 507,-26.5 507,-26.5 513,-26.5 519,-32.5 519,-38.5 519,-38.5 519,-78.5 519,-78.5 519,-84.5 513,-90.5 507,-90.5"/>
<text text-anchor="start" x="348" y="-69.3" font-family="Helvetica,sans-Serif" font-weight="bold" font-size="14.00">amount_per_country</text>
<text text-anchor="start" x="406.5" y="-41.3" font-family="Helvetica,sans-Serif" font-style="italic" font-size="14.00">Series</text>
</g>
<!-- processed_data&#45;&gt;amount_per_country -->
<g id="edge3" class="edge">
<title>processed_data&#45;&gt;amount_per_country</title>
<path fill="none" stroke="black" d="M308.21,-58.5C314.23,-58.5 320.39,-58.5 326.57,-58.5"/>
<polygon fill="black" stroke="black" points="326.98,-62 336.98,-58.5 326.98,-55 326.98,-62"/>
</g>
<!-- raw_data -->
<g id="node3" class="node">
<title>raw_data</title>
<path fill="#ffffff" stroke="#f06449" stroke-width="3" d="M104,-127.5C104,-127.5 29,-127.5 29,-127.5 23,-127.5 17,-121.5 17,-115.5 17,-115.5 17,-75.5 17,-75.5 17,-69.5 23,-63.5 29,-63.5 29,-63.5 104,-63.5 104,-63.5 110,-63.5 116,-69.5 116,-75.5 116,-75.5 116,-115.5 116,-115.5 116,-121.5 110,-127.5 104,-127.5"/>
<text text-anchor="start" x="30" y="-106.3" font-family="Helvetica,sans-Serif" font-weight="bold" font-size="14.00">raw_data</text>
<text text-anchor="start" x="28" y="-78.3" font-family="Helvetica,sans-Serif" font-style="italic" font-size="14.00">DataFrame</text>
</g>
<!-- raw_data&#45;&gt;processed_data -->
<g id="edge1" class="edge">
<title>raw_data&#45;&gt;processed_data</title>
<path fill="none" stroke="black" d="M116.11,-84.7C127.39,-82.19 139.71,-79.45 151.99,-76.72"/>
<polygon fill="black" stroke="black" points="152.81,-80.13 161.82,-74.54 151.29,-73.29 152.81,-80.13"/>
</g>
<!-- _processed_data_inputs -->
<g id="node4" class="node">
<title>_processed_data_inputs</title>
<polygon fill="#ffffff" stroke="black" stroke-dasharray="5,2" points="133,-45 0,-45 0,0 133,0 133,-45"/>
<text text-anchor="start" x="15.5" y="-18.3" font-family="Helvetica,sans-Serif" font-size="14.00">cutoff_date</text>
<text text-anchor="start" x="99.5" y="-18.3" font-family="Helvetica,sans-Serif" font-size="14.00">str</text>
</g>
<!-- _processed_data_inputs&#45;&gt;processed_data -->
<g id="edge2" class="edge">
<title>_processed_data_inputs&#45;&gt;processed_data</title>
<path fill="none" stroke="black" d="M133.31,-36.73C139.45,-38.06 145.73,-39.41 151.99,-40.77"/>
<polygon fill="black" stroke="black" points="151.3,-44.2 161.81,-42.89 152.78,-37.36 151.3,-44.2"/>
</g>
<!-- input -->
<g id="node5" class="node">
<title>input</title>
<polygon fill="#ffffff" stroke="black" stroke-dasharray="5,2" points="96,-348 37,-348 37,-311 96,-311 96,-348"/>
<text text-anchor="middle" x="66.5" y="-325.8" font-family="Helvetica,sans-Serif" font-size="14.00">input</text>
</g>
<!-- function -->
<g id="node6" class="node">
<title>function</title>
<path fill="#b4d8e4" stroke="black" d="M94.5,-293C94.5,-293 38.5,-293 38.5,-293 32.5,-293 26.5,-287 26.5,-281 26.5,-281 26.5,-268 26.5,-268 26.5,-262 32.5,-256 38.5,-256 38.5,-256 94.5,-256 94.5,-256 100.5,-256 106.5,-262 106.5,-268 106.5,-268 106.5,-281 106.5,-281 106.5,-287 100.5,-293 94.5,-293"/>
<text text-anchor="middle" x="66.5" y="-270.8" font-family="Helvetica,sans-Serif" font-size="14.00">function</text>
</g>
<!-- output -->
<g id="node7" class="node">
<title>output</title>
<path fill="#ffc857" stroke="black" d="M88.5,-238C88.5,-238 44.5,-238 44.5,-238 38.5,-238 32.5,-232 32.5,-226 32.5,-226 32.5,-213 32.5,-213 32.5,-207 38.5,-201 44.5,-201 44.5,-201 88.5,-201 88.5,-201 94.5,-201 100.5,-207 100.5,-213 100.5,-213 100.5,-226 100.5,-226 100.5,-232 94.5,-238 88.5,-238"/>
<text text-anchor="middle" x="66.5" y="-215.8" font-family="Helvetica,sans-Serif" font-size="14.00">output</text>
</g>
<!-- from cache -->
<g id="node8" class="node">
<title>from cache</title>
<path fill="#ffffff" stroke="#f06449" stroke-width="3" d="M104.5,-183C104.5,-183 28.5,-183 28.5,-183 22.5,-183 16.5,-177 16.5,-171 16.5,-171 16.5,-158 16.5,-158 16.5,-152 22.5,-146 28.5,-146 28.5,-146 104.5,-146 104.5,-146 110.5,-146 116.5,-152 116.5,-158 116.5,-158 116.5,-171 116.5,-171 116.5,-177 110.5,-183 104.5,-183"/>
<text text-anchor="middle" x="66.5" y="-160.8" font-family="Helvetica,sans-Serif" font-size="14.00">from cache</text>
</g>
</g>
</svg>