<?xml version="1.0" encoding="UTF-8" standalone="no"?>
<!DOCTYPE svg PUBLIC "-//W3C//DTD SVG 1.1//EN"
 "http://www.w3.org/Graphics/SVG/1.1/DTD/svg11.dtd">
<!-- Generated by graphviz version 2.43.0 (0)
 -->
<!-- Title: %3 Pages: 1 -->
<svg width="316pt" height="341pt"
 viewBox="0.00 0.00 316.00 340.50" xmlns="http://www.w3.org/2000/svg" xmlns:xlink="http://www.w3.org/1999/xlink">
<g id="graph0" class="graph" transform="scale(1 1) rotate(0) translate(4 336.5)">
<title>%3</title>
<polygon fill="white" stroke="transparent" points="-4,4 -4,-336.5 312,-336.5 312,4 -4,4"/>
<g id="clust1" class="cluster">
<title>cluster__legend</title>
<polygon fill="#ffffff" stroke="black" points="8.5,-137.5 8.5,-324.5 124.5,-324.5 124.5,-137.5 8.5,-137.5"/>
<text text-anchor="middle" x="66.5" y="-309.3" font-family="Helvetica,sans-Serif" font-size="14.00">Legend</text>
</g>
<!-- raw_data -->
<g id="node1" class="node">
<title>raw_data</title>
<path fill="#ffffff" stroke="#f06449" stroke-width="3" d="M104,-127.5C104,-127.5 29,-127.5 29,-127.5 23,-127.5 17,-121.5 17,-115.5 17,-115.5 17,-75.5 17,-75.5 17,-69.5 23,-63.5 29,-63.5 29,-63.5 104,-63.5 104,-63.5 110,-63.5 116,-69.5 116,-75.5 116,-75.5 116,-115.5 116,-115.5 116,-121.5 110,-127.5 104,-127.5"/>
<text text-anchor="start" x="30" y="-106.3" font-family="Helvetica,sans-Serif" font-weight="bold" font-size="14.00">raw_data</text>
<text text-anchor="start" x="28" y="-78.3" font-family="Helvetica,sans-Serif" font-style="italic" font-size="14.00">DataFrame</text>
</g>
<!-- processed_data -->
<g id="node2" class="node">
<title>processed_data</title>
<path fill="#ffc857" stroke="#f06449" stroke-width="3" d="M296,-90.5C296,-90.5 174,-90.5 174,-90.5 168,-90.5 162,-84.5 162,-78.5 162,-78.5 162,-38.5 162,-38.5 162,-32.5 168,-26.5 174,-26.5 174,-26.5 296,-26.5 296,-26.5 302,-26.5 308,-32.5 308,-38.5 308,-38.5 308,-78.5 308,-78.5 308,-84.5 302,-90.5 296,-90.5"/>
<text text-anchor="start" x="173" y="-69.3" font-family="Helvetica,sans-Serif" font-weight="bold" font-size="14.00">processed_data</text>
<text text-anchor="start" x="196.5" y="-41.3" font-family="Helvetica,sans-Serif" font-style="italic" font-size="14.00">DataFrame</text>
</g>
<!-- raw_data&#45;&gt;processed_data -->
<g id="edge1" class="edge">
<title>raw_data&#45;&gt;processed_data</title>
<path fill="none" stroke="black" d="M116.11,-84.7C127.39,-82.19 139.71,-79.45 151.99,-76.72"/>
<polygon fill="black" stroke="black" points="152.81,-80.13 161.82,-74.54 151.29,-73.29 152.81,-80.13"/>
</g>
<!-- _processed_data_inputs -->
<g id="node3" class="node">
<title>_processed_data_inputs</title>
<polygon fill="#ffffff" stroke="black" stroke-dasharray="5,2" points="133,-45 0,-45 0,0 133,0 133,-45"/>
<text text-anchor="start" x="15.5" y="-18.3" font-family="Helvetica,sans-Serif" font-size="14.00">cutoff_date</text>
<text text-anchor="start" x="99.5" y="-18.3" font-family="Helvetica,sans-Serif" font-size="14.00">str</text>
</g>
<!-- _processed_data_inputs&#45;&gt;processed_data -->
<g id="edge2" class="edge">
<title>_processed_data_inputs&#45;&gt;processed_data</title>
<path fill="none" stroke="black" d="M133.31,-36.73C139.45,-38.06 145.73,-39.41 151.99,-40.77"/>
<polygon fill="black" stroke="black" points="151.3,-44.2 161.81,-42.89 152.78,-37.36 151.3,-44.2"/>
</g>
<!-- input -->
<g id="node4" class="node">
<title>input</title>
<polygon fill="#ffffff" stroke="black" stroke-dasharray="5,2" points="96,-293 37,-293 37,-256 96,-256 96,-293"/>
<text text-anchor="middle" x="66.5" y="-270.8" font-family="Helvetica,sans-Serif" font-size="14.00">input</text>
</g>
<!-- output -->
<g id="node5" class="node">
<title>output</title>
<path fill="#ffc857" stroke="black" d="M88.5,-238C88.5,-238 44.5,-238 44.5,-238 38.5,-238 32.5,-232 32.5,-226 32.5,-226 32.5,-213 32.5,-213 32.5,-207 38.5,-201 44.5,-201 44.5,-201 88.5,-201 88.5,-201 94.5,-201 100.5,-207 100.5,-213 100.5,-213 100.5,-226 100.5,-226 100.5,-232 94.5,-238 88.5,-238"/>
<text text-anchor="middle" x="66.5" y="-215.8" font-family="Helvetica,sans-Serif" font-size="14.00">output</text>
</g>
<!-- from cache -->
<g id="node6" class="node">
<title>from cache</title>
<path fill="#ffffff" stroke="#f06449" stroke-width="3" d="M104.5,-183C104.5,-183 28.5,-183 28.5,-183 22.5,-183 16.5,-177 16.5,-171 16.5,-171 16.5,-158 16.5,-158 16.5,-152 22.5,-146 28.5,-146 28.5,-146 104.5,-146 104.5,-146 110.5,-146 116.5,-152 116.5,-158 116.5,-158 116.5,-171 116.5,-171 116.5,-177 110.5,-183 104.5,-183"/>
<text text-anchor="middle" x="66.5" y="-160.8" font-family="Helvetica,sans-Serif" font-size="14.00">from cache</text>
</g>
</g>
</svg>