<?xml version="1.0" encoding="UTF-8" standalone="no"?>
<!DOCTYPE svg PUBLIC "-//W3C//DTD SVG 1.1//EN"
 "http://www.w3.org/Graphics/SVG/1.1/DTD/svg11.dtd">
<!-- Generated by graphviz version 2.43.0 (0)
 -->
<!-- Title: %3 Pages: 1 -->
<svg width="847pt" height="355pt"
 viewBox="0.00 0.00 847.00 354.50" xmlns="http://www.w3.org/2000/svg" xmlns:xlink="http://www.w3.org/1999/xlink">
<g id="graph0" class="graph" transform="scale(1 1) rotate(0) translate(4 350.5)">
<title>%3</title>
<polygon fill="white" stroke="transparent" points="-4,4 -4,-350.5 843,-350.5 843,4 -4,4"/>
<g id="clust1" class="cluster">
<title>cluster__legend</title>
<polygon fill="#ffffff" stroke="black" points="14.5,-149.5 14.5,-338.5 135.5,-338.5 135.5,-149.5 14.5,-149.5"/>
<text text-anchor="middle" x="75" y="-323.3" font-family="Helvetica,sans-Serif" font-size="14.00">Legend</text>
</g>
<!-- amount_per_country -->
<g id="node1" class="node">
<title>amount_per_country</title>
<path fill="#b4d8e4" stroke="black" d="M686,-90.5C686,-90.5 528,-90.5 528,-90.5 522,-90.5 516,-84.5 516,-78.5 516,-78.5 516,-38.5 516,-38.5 516,-32.5 522,-26.5 528,-26.5 528,-26.5 686,-26.5 686,-26.5 692,-26.5 698,-32.5 698,-38.5 698,-38.5 698,-78.5 698,-78.5 698,-84.5 692,-90.5 686,-90.5"/>
<text text-anchor="start" x="527" y="-69.3" font-family="Helvetica,sans-Serif" font-weight="bold" font-size="14.00">amount_per_country</text>
<text text-anchor="start" x="568.5" y="-41.3" font-family="Helvetica,sans-Serif" font-style="italic" font-size="14.00">DataFrame</text>
</g>
<!-- saved_data -->
<g id="node5" class="node">
<title>saved_data</title>
<path fill="#b4d8e4" stroke="black" d="M839,-94.5C839,-98.91 813.9,-102.5 783,-102.5 752.1,-102.5 727,-98.91 727,-94.5 727,-94.5 727,-22.5 727,-22.5 727,-18.09 752.1,-14.5 783,-14.5 813.9,-14.5 839,-18.09 839,-22.5 839,-22.5 839,-94.5 839,-94.5"/>
<path fill="none" stroke="black" d="M839,-94.5C839,-90.09 813.9,-86.5 783,-86.5 752.1,-86.5 727,-90.09 727,-94.5"/>
<text text-anchor="start" x="738" y="-69.3" font-family="Helvetica,sans-Serif" font-weight="bold" font-size="14.00">saved_data</text>
<text text-anchor="start" x="738" y="-41.3" font-family="Helvetica,sans-Serif" font-style="italic" font-size="14.00">saved_data()</text>
</g>
<!-- amount_per_country&#45;&gt;saved_data -->
<g id="edge5" class="edge">
<title>amount_per_country&#45;&gt;saved_data</title>
<path fill="none" stroke="black" d="M698.06,-58.5C704.33,-58.5 710.57,-58.5 716.67,-58.5"/>
<polygon fill="black" stroke="black" points="716.76,-62 726.76,-58.5 716.76,-55 716.76,-62"/>
</g>
<!-- raw_data -->
<g id="node2" class="node">
<title>raw_data</title>
<path fill="#b4d8e4" stroke="black" d="M283,-127.5C283,-127.5 208,-127.5 208,-127.5 202,-127.5 196,-121.5 196,-115.5 196,-115.5 196,-75.5 196,-75.5 196,-69.5 202,-63.5 208,-63.5 208,-63.5 283,-63.5 283,-63.5 289,-63.5 295,-69.5 295,-75.5 295,-75.5 295,-115.5 295,-115.5 295,-121.5 289,-127.5 283,-127.5"/>
<text text-anchor="start" x="209" y="-106.3" font-family="Helvetica,sans-Serif" font-weight="bold" font-size="14.00">raw_data</text>
<text text-anchor="start" x="207" y="-78.3" font-family="Helvetica,sans-Serif" font-style="italic" font-size="14.00">DataFrame</text>
</g>
<!-- processed_data -->
<g id="node4" class="node">
<title>processed_data</title>
<path fill="#b4d8e4" stroke="black" d="M475,-90.5C475,-90.5 353,-90.5 353,-90.5 347,-90.5 341,-84.5 341,-78.5 341,-78.5 341,-38.5 341,-38.5 341,-32.5 347,-26.5 353,-26.5 353,-26.5 475,-26.5 475,-26.5 481,-26.5 487,-32.5 487,-38.5 487,-38.5 487,-78.5 487,-78.5 487,-84.5 481,-90.5 475,-90.5"/>
<text text-anchor="start" x="352" y="-69.3" font-family="Helvetica,sans-Serif" font-weight="bold" font-size="14.00">processed_data</text>
<text text-anchor="start" x="375.5" y="-41.3" font-family="Helvetica,sans-Serif" font-style="italic" font-size="14.00">DataFrame</text>
</g>
<!-- raw_data&#45;&gt;processed_data -->
<g id="edge3" class="edge">
<title>raw_data&#45;&gt;processed_data</title>
<path fill="none" stroke="black" d="M295.11,-84.7C306.39,-82.19 318.71,-79.45 330.99,-76.72"/>
<polygon fill="black" stroke="black" points="331.81,-80.13 340.82,-74.54 330.29,-73.29 331.81,-80.13"/>
</g>
<!-- raw_data.loader -->
<g id="node3" class="node">
<title>raw_data.loader</title>
<path fill="#b4d8e4" stroke="black" d="M150,-131.5C150,-135.91 116.38,-139.5 75,-139.5 33.62,-139.5 0,-135.91 0,-131.5 0,-131.5 0,-59.5 0,-59.5 0,-55.09 33.62,-51.5 75,-51.5 116.38,-51.5 150,-55.09 150,-59.5 150,-59.5 150,-131.5 150,-131.5"/>
<path fill="none" stroke="black" d="M150,-131.5C150,-127.09 116.38,-123.5 75,-123.5 33.62,-123.5 0,-127.09 0,-131.5"/>
<text text-anchor="start" x="11" y="-106.3" font-family="Helvetica,sans-Serif" font-weight="bold" font-size="14.00">raw_data.loader</text>
<text text-anchor="start" x="38" y="-78.3" font-family="Helvetica,sans-Serif" font-style="italic" font-size="14.00">raw_data()</text>
</g>
<!-- raw_data.loader&#45;&gt;raw_data -->
<g id="edge2" class="edge">
<title>raw_data.loader&#45;&gt;raw_data</title>
<path fill="none" stroke="black" d="M150.4,-95.5C162.14,-95.5 174.15,-95.5 185.48,-95.5"/>
<polygon fill="black" stroke="black" points="185.67,-99 195.67,-95.5 185.67,-92 185.67,-99"/>
</g>
<!-- processed_data&#45;&gt;amount_per_country -->
<g id="edge1" class="edge">
<title>processed_data&#45;&gt;amount_per_country</title>
<path fill="none" stroke="black" d="M487.21,-58.5C493.23,-58.5 499.39,-58.5 505.57,-58.5"/>
<polygon fill="black" stroke="black" points="505.98,-62 515.98,-58.5 505.98,-55 505.98,-62"/>
</g>
<!-- _processed_data_inputs -->
<g id="node6" class="node">
<title>_processed_data_inputs</title>
<polygon fill="#ffffff" stroke="black" stroke-dasharray="5,2" points="312,-45 179,-45 179,0 312,0 312,-45"/>
<text text-anchor="start" x="194.5" y="-18.3" font-family="Helvetica,sans-Serif" font-size="14.00">cutoff_date</text>
<text text-anchor="start" x="278.5" y="-18.3" font-family="Helvetica,sans-Serif" font-size="14.00">str</text>
</g>
<!-- _processed_data_inputs&#45;&gt;processed_data -->
<g id="edge4" class="edge">
<title>_processed_data_inputs&#45;&gt;processed_data</title>
<path fill="none" stroke="black" d="M312.31,-36.73C318.45,-38.06 324.73,-39.41 330.99,-40.77"/>
<polygon fill="black" stroke="black" points="330.3,-44.2 340.81,-42.89 331.78,-37.36 330.3,-44.2"/>
</g>
<!-- input -->
<g id="node7" class="node">
<title>input</title>
<polygon fill="#ffffff" stroke="black" stroke-dasharray="5,2" points="104.5,-307 45.5,-307 45.5,-270 104.5,-270 104.5,-307"/>
<text text-anchor="middle" x="75" y="-284.8" font-family="Helvetica,sans-Serif" font-size="14.00">input</text>
</g>
<!-- function -->
<g id="node8" class="node">
<title>function</title>
<path fill="#b4d8e4" stroke="black" d="M103,-252C103,-252 47,-252 47,-252 41,-252 35,-246 35,-240 35,-240 35,-227 35,-227 35,-221 41,-215 47,-215 47,-215 103,-215 103,-215 109,-215 115,-221 115,-227 115,-227 115,-240 115,-240 115,-246 109,-252 103,-252"/>
<text text-anchor="middle" x="75" y="-229.8" font-family="Helvetica,sans-Serif" font-size="14.00">function</text>
</g>
<!-- materializer -->
<g id="node9" class="node">
<title>materializer</title>
<path fill="#ffffff" stroke="black" d="M127.5,-193.76C127.5,-195.76 103.97,-197.38 75,-197.38 46.03,-197.38 22.5,-195.76 22.5,-193.76 22.5,-193.76 22.5,-161.24 22.5,-161.24 22.5,-159.24 46.03,-157.62 75,-157.62 103.97,-157.62 127.5,-159.24 127.5,-161.24 127.5,-161.24 127.5,-193.76 127.5,-193.76"/>
<path fill="none" stroke="black" d="M127.5,-193.76C127.5,-191.77 103.97,-190.15 75,-190.15 46.03,-190.15 22.5,-191.77 22.5,-193.76"/>
<text text-anchor="middle" x="75" y="-173.8" font-family="Helvetica,sans-Serif" font-size="14.00">materializer</text>
</g>
</g>
</svg>